<?xml version="1.0" encoding="UTF-8"?>
<svg version="1.1" xmlns="http://www.w3.org/2000/svg" width="65" height="65">
<path d="M0 0 C4.7745773 0.73619181 4.7745773 0.73619181 6.93359375 2.9765625 C8.86468903 7.37945974 8.96867784 10.81322163 8.49609375 15.5390625 C10.80609375 15.5390625 13.11609375 15.5390625 15.49609375 15.5390625 C15.99109375 22.4690625 15.99109375 22.4690625 16.49609375 29.5390625 C21.44609375 29.5390625 26.39609375 29.5390625 31.49609375 29.5390625 C35.19904968 36.94497436 33.49609375 49.19680902 33.49609375 56.5390625 C14.02609375 56.5390625 -5.44390625 56.5390625 -25.50390625 56.5390625 C-25.50390625 33.33943563 -25.50390625 33.33943563 -25.06640625 26.4765625 C-25.02708984 25.73341797 -24.98777344 24.99027344 -24.94726562 24.22460938 C-24.76485871 21.12369189 -24.49118466 18.50089772 -23.50390625 15.5390625 C-21.19390625 15.5390625 -18.88390625 15.5390625 -16.50390625 15.5390625 C-16.59091797 14.54326172 -16.59091797 14.54326172 -16.6796875 13.52734375 C-16.72480469 12.64433594 -16.76992188 11.76132813 -16.81640625 10.8515625 C-16.90341797 9.54638672 -16.90341797 9.54638672 -16.9921875 8.21484375 C-15.37009915 -0.67420043 -7.33107187 -0.39757141 0 0 Z M-12.1171875 4.74609375 C-13.90285233 7.05488292 -13.81667857 8.34529921 -13.69140625 11.2265625 C-13.66433594 12.03480469 -13.63726562 12.84304687 -13.609375 13.67578125 C-13.57457031 14.29066406 -13.53976562 14.90554687 -13.50390625 15.5390625 C-12.51390625 15.5390625 -11.52390625 15.5390625 -10.50390625 15.5390625 C-10.44332031 14.84039062 -10.38273437 14.14171875 -10.3203125 13.421875 C-10.19462891 12.05675781 -10.19462891 12.05675781 -10.06640625 10.6640625 C-9.98519531 9.75914063 -9.90398438 8.85421875 -9.8203125 7.921875 C-9.50390625 5.5390625 -9.50390625 5.5390625 -8.50390625 3.5390625 C-10.57281463 3.33937283 -10.57281463 3.33937283 -12.1171875 4.74609375 Z M-4.50390625 3.5390625 C-6.61024343 5.24735171 -7.44192233 6.06054666 -7.796875 8.80078125 C-7.76207031 9.60128906 -7.72726563 10.40179688 -7.69140625 11.2265625 C-7.66433594 12.03480469 -7.63726563 12.84304687 -7.609375 13.67578125 C-7.57457031 14.29066406 -7.53976563 14.90554687 -7.50390625 15.5390625 C-5.19390625 15.5390625 -2.88390625 15.5390625 -0.50390625 15.5390625 C0.08845959 9.82568877 0.08845959 9.82568877 -2.50390625 5.0390625 C-3.16390625 4.5440625 -3.82390625 4.0490625 -4.50390625 3.5390625 Z M0.49609375 3.5390625 C1.15609375 7.4990625 1.81609375 11.4590625 2.49609375 15.5390625 C3.48609375 15.5390625 4.47609375 15.5390625 5.49609375 15.5390625 C5.90662522 10.04908158 5.90662522 10.04908158 4.12109375 5.0390625 C2.61973856 3.31296913 2.61973856 3.31296913 0.49609375 3.5390625 Z " fill="#EA433F" transform="translate(28.50390625,3.4609375)"/>
<path d="M0 0 C3.70295593 7.40591186 2 19.65774652 2 27 C-9.22 27 -20.44 27 -32 27 C-32 9.58928571 -32 9.58928571 -31 1 C-20.63946908 0.16639406 -10.3905794 -0.12288464 0 0 Z " fill="#F6B032" transform="translate(60,33)"/>
<path d="M0 0 C3.26290736 1.62230534 3.45137535 2.4691358 5 6 C5.34760434 9.05395239 5.30550015 11.9449985 5 15 C4.01 15 3.02 15 2 15 C1.87882812 14.28972656 1.75765625 13.57945313 1.6328125 12.84765625 C1.46523438 11.92855469 1.29765625 11.00945313 1.125 10.0625 C0.96257813 9.14597656 0.80015625 8.22945312 0.6328125 7.28515625 C0.42398438 6.53105469 0.21515625 5.77695313 0 5 C-0.66 4.67 -1.32 4.34 -2 4 C-1.67 4.66 -1.34 5.32 -1 6 C-0.92883618 8.37402501 -0.91590915 10.75000677 -0.9375 13.125 C-0.94652344 14.40632813 -0.95554687 15.68765625 -0.96484375 17.0078125 C-0.97644531 17.99523437 -0.98804687 18.98265625 -1 20 C-1.99 20 -2.98 20 -4 20 C-4.03738281 19.09636719 -4.07476562 18.19273438 -4.11328125 17.26171875 C-4.17902344 16.08222656 -4.24476562 14.90273438 -4.3125 13.6875 C-4.37050781 12.51574219 -4.42851562 11.34398437 -4.48828125 10.13671875 C-5.01604768 6.9016314 -5.42380724 5.91315119 -8 4 C-10.39763185 6.39763185 -10.34280586 7.33273498 -10.625 10.625 C-10.69976562 11.44226562 -10.77453125 12.25953125 -10.8515625 13.1015625 C-10.90054687 13.72804688 -10.94953125 14.35453125 -11 15 C-11.99 15 -12.98 15 -14 15 C-14 11.7 -14 8.4 -14 5 C-14.99 5.495 -14.99 5.495 -16 6 C-16.46727852 7.83528863 -16.46727852 7.83528863 -16.6328125 10.03515625 C-16.71660156 10.84404297 -16.80039062 11.65292969 -16.88671875 12.48632812 C-16.96535156 13.33646484 -17.04398438 14.18660156 -17.125 15.0625 C-17.21136719 15.91650391 -17.29773438 16.77050781 -17.38671875 17.65039062 C-17.59947228 19.76610633 -17.80079953 21.88296524 -18 24 C-18.66 24 -19.32 24 -20 24 C-20.13530844 20.93601549 -20.2342407 17.87802874 -20.3125 14.8125 C-20.35439453 13.94818359 -20.39628906 13.08386719 -20.43945312 12.19335938 C-20.52289396 7.83774801 -20.42197908 5.63176296 -17.94921875 1.9296875 C-12.46265591 -1.660196 -6.24451254 -0.96284104 0 0 Z " fill="#E8E5E8" transform="translate(32,4)"/>
<path d="M0 0 C2.64 0 5.28 0 8 0 C11.76313918 7.52627837 10.10727515 18.83516876 10 27 C7.36 27 4.72 27 2 27 C1.66027199 24.18814406 1.32809788 21.37571764 1 18.5625 C0.90460937 17.77939453 0.80921875 16.99628906 0.7109375 16.18945312 C0.08488869 10.75624381 -0.08759571 5.46925737 0 0 Z " fill="#E7A42D" transform="translate(52,33)"/>
<path d="M0 0 C2.64 0 5.28 0 8 0 C8.33 4.62 8.66 9.24 9 14 C6.03 14 3.06 14 0 14 C0 9.38 0 4.76 0 0 Z " fill="#C22F2C" transform="translate(36,19)"/>
<path d="M0 0 C0.99 0 1.98 0 3 0 C3.33 3.63 3.66 7.26 4 11 C5.65 11 7.3 11 9 11 C10.66342837 9.33657163 10.36048097 7.2174291 10.5625 4.9375 C10.64628906 4.01839844 10.73007812 3.09929688 10.81640625 2.15234375 C10.87699219 1.44207031 10.93757813 0.73179688 11 0 C11.66 0 12.32 0 13 0 C13.08153933 1.58246707 13.13943557 3.16616273 13.1875 4.75 C13.22230469 5.63171875 13.25710937 6.5134375 13.29296875 7.421875 C12.9432368 10.49951615 12.15531808 11.8043956 10 14 C6.49182714 14.59713581 4.71064394 14.41142544 1.625 12.625 C-0.86963042 8.5952124 -0.31735888 4.61933486 0 0 Z " fill="#EBE5D7" transform="translate(34,39)"/>
<path d="M0 0 C3.1875 -0.375 3.1875 -0.375 7 0 C10.25198998 2.69845977 11.77164122 4.19947888 12.3046875 8.40234375 C12.31171118 10.62533812 12.22111259 12.78887412 12 15 C11.01 15 10.02 15 9 15 C8.93683594 14.32453125 8.87367187 13.6490625 8.80859375 12.953125 C8.22838874 7.6568537 8.22838874 7.6568537 5.30859375 3.4453125 C3.18470931 2.21982028 3.18470931 2.21982028 0 1 C0 0.67 0 0.34 0 0 Z " fill="#D9DBDD" transform="translate(25,4)"/>
<path d="M0 0 C0 2.97 0 5.94 0 9 C-1.98 9 -3.96 9 -6 9 C-6 6.03 -6 3.06 -6 0 C-4 -1 -4 -1 0 0 Z " fill="#F6A831" transform="translate(16,29)"/>
<path d="M0 0 C0.99 0 1.98 0 3 0 C3 4.62 3 9.24 3 14 C2.01 14 1.02 14 0 14 C0 9.38 0 4.76 0 0 Z " fill="#CF3330" transform="translate(36,19)"/>
<path d="M0 0 C-0.47566406 0.84304687 -0.47566406 0.84304687 -0.9609375 1.703125 C-2.06874525 4.15196317 -2.38975399 6.08387855 -2.625 8.75 C-2.69976563 9.54921875 -2.77453125 10.3484375 -2.8515625 11.171875 C-2.90054687 11.77515625 -2.94953125 12.3784375 -3 13 C-3.99 13 -4.98 13 -6 13 C-6.08121924 11.39667209 -6.13929134 9.79215974 -6.1875 8.1875 C-6.22230469 7.29417969 -6.25710937 6.40085937 -6.29296875 5.48046875 C-6 3 -6 3 -4.67578125 1.17578125 C-3 0 -3 0 0 0 Z " fill="#D9DCDE" transform="translate(24,6)"/>
<path d="M0 0 C0.99 0 1.98 0 3 0 C3.33 3.96 3.66 7.92 4 12 C3.01 12 2.02 12 1 12 C-0.26237731 9.47524538 -0.09856404 7.68799534 -0.0625 4.875 C-0.05347656 3.96492188 -0.04445312 3.05484375 -0.03515625 2.1171875 C-0.02355469 1.41851562 -0.01195312 0.71984375 0 0 Z " fill="#EDDBB8" transform="translate(34,39)"/>
</svg>
